<?xml version="1.0" standalone="no"?>
<!DOCTYPE svg PUBLIC "-//W3C//DTD SVG 20010904//EN"
 "http://www.w3.org/TR/2001/REC-SVG-20010904/DTD/svg10.dtd">
<svg version="1.0" xmlns="http://www.w3.org/2000/svg"
 width="522.000000pt" height="552.000000pt" viewBox="0 0 522.000000 552.000000"
 preserveAspectRatio="xMidYMid meet">

<g transform="translate(0.000000,552.000000) scale(0.100000,-0.100000)"
fill="#000000" stroke="none">
<path d="M0 2760 l0 -2760 2610 0 2610 0 0 2760 0 2760 -2610 0 -2610 0 0
-2760z m3190 1787 c298 -51 491 -143 615 -294 116 -141 168 -286 169 -473 1
-63 -2 -137 -6 -165 l-7 -50 56 -35 c219 -138 310 -410 257 -766 -43 -290
-151 -534 -311 -705 -88 -93 -165 -150 -278 -207 -177 -88 -356 -126 -647
-138 -236 -10 -253 -23 -283 -217 -9 -62 -27 -177 -40 -257 -13 -80 -35 -224
-50 -320 -30 -194 -50 -249 -99 -280 -32 -19 -49 -20 -399 -20 l-365 0 -27 32
c-31 36 -31 34 5 251 11 65 20 127 20 138 0 18 -12 19 -390 19 -270 0 -397 3
-414 11 -14 7 -32 26 -40 44 -17 35 -16 42 89 705 20 124 47 296 60 383 14 87
34 213 45 280 11 67 35 223 55 347 95 610 139 890 185 1177 11 67 31 195 45
284 31 200 53 241 144 270 14 4 361 7 771 5 634 -2 759 -5 840 -19z"/>
</g>
</svg>
